<svg width="28" height="28" viewBox="0 0 28 28" fill="none" xmlns="http://www.w3.org/2000/svg">
<path opacity="0.4" d="M13.7357 6.6527L15.7165 4.67194C17.9468 2.44165 20.8667 1.51654 23.9568 1.36537C25.1588 1.30657 25.7597 1.27717 26.2416 1.75909C26.7236 2.24099 26.6941 2.84195 26.6353 4.0439C26.4841 7.13405 25.559 10.0539 23.3288 12.2842L21.348 14.265C19.7168 15.8962 19.2531 16.36 19.5955 18.1294C19.9335 19.481 20.2605 20.7898 19.2777 21.7726C18.0856 22.9647 16.9981 22.9647 15.806 21.7726L6.22809 12.1947C5.03597 11.0026 5.03593 9.91511 6.22809 8.72296C7.21088 7.74016 8.5197 8.0673 9.87128 8.40523C11.6406 8.74769 12.1045 8.2839 13.7357 6.6527Z" fill="url(#paint0_linear_0_1)"/>
<path d="M13.7357 6.6527L15.7165 4.67194C17.9468 2.44165 20.8667 1.51654 23.9568 1.36537C25.1588 1.30657 25.7597 1.27717 26.2416 1.75909C26.7236 2.24099 26.6941 2.84195 26.6353 4.0439C26.4841 7.13404 25.559 10.0539 23.3288 12.2842L21.348 14.265C19.7168 15.8962 19.2531 16.36 19.5955 18.1294C19.9335 19.481 20.2605 20.7898 19.2777 21.7726C18.0856 22.9647 16.9981 22.9647 15.806 21.7726L6.22809 12.1947C5.03597 11.0026 5.03593 9.91511 6.22809 8.72296C7.21088 7.74016 8.5197 8.0673 9.87128 8.40523C11.6406 8.74769 12.1045 8.2839 13.7357 6.6527Z" stroke="url(#paint1_linear_0_1)" stroke-width="2" stroke-linejoin="round"/>
<path d="M20.6621 7.33337H20.6741" stroke="url(#paint2_linear_0_1)" stroke-width="2" stroke-linecap="round" stroke-linejoin="round"/>
<path d="M1.33398 26.6667L8.00065 20" stroke="url(#paint3_linear_0_1)" stroke-width="2" stroke-linecap="round"/>
<path d="M9.33398 26.6667L12.0007 24" stroke="url(#paint4_linear_0_1)" stroke-width="2" stroke-linecap="round"/>
<path d="M1.33398 18.6667L4.00065 16" stroke="url(#paint5_linear_0_1)" stroke-width="2" stroke-linecap="round"/>
<defs>
<linearGradient id="paint0_linear_0_1" x1="6.77712" y1="3.01758" x2="27.8683" y2="4.86918" gradientUnits="userSpaceOnUse">
<stop offset="0.0695937" stop-color="#246BFD"/>
<stop offset="0.816425" stop-color="#0040C3"/>
</linearGradient>
<linearGradient id="paint1_linear_0_1" x1="6.77712" y1="3.01758" x2="27.8683" y2="4.86918" gradientUnits="userSpaceOnUse">
<stop offset="0.0695937" stop-color="#246BFD"/>
<stop offset="0.816425" stop-color="#0040C3"/>
</linearGradient>
<linearGradient id="paint2_linear_0_1" x1="20.6629" y1="7.41232" x2="20.6749" y2="7.41233" gradientUnits="userSpaceOnUse">
<stop offset="0.0695937" stop-color="#246BFD"/>
<stop offset="0.816425" stop-color="#0040C3"/>
</linearGradient>
<linearGradient id="paint3_linear_0_1" x1="1.78496" y1="20.5263" x2="8.37597" y2="21.1049" gradientUnits="userSpaceOnUse">
<stop offset="0.0695937" stop-color="#246BFD"/>
<stop offset="0.816425" stop-color="#0040C3"/>
</linearGradient>
<linearGradient id="paint4_linear_0_1" x1="9.51438" y1="24.2105" x2="12.1508" y2="24.442" gradientUnits="userSpaceOnUse">
<stop offset="0.0695937" stop-color="#246BFD"/>
<stop offset="0.816425" stop-color="#0040C3"/>
</linearGradient>
<linearGradient id="paint5_linear_0_1" x1="1.51438" y1="16.2105" x2="4.15078" y2="16.442" gradientUnits="userSpaceOnUse">
<stop offset="0.0695937" stop-color="#246BFD"/>
<stop offset="0.816425" stop-color="#0040C3"/>
</linearGradient>
</defs>
</svg>
